Coordinates
version=1
nRows=17
nColumns=40
inDegrees=yes

Units are S.I. units (second, meters, Newtons, ...)
Angles are in degrees.

endheader
time	pelvis_tilt	pelvis_list	pelvis_rotation	pelvis_tx	pelvis_ty	pelvis_tz	hip_flexion_r	hip_adduction_r	hip_rotation_r	knee_angle_r	knee_angle_r_beta	ankle_angle_r	subtalar_angle_r	mtp_angle_r	hip_flexion_l	hip_adduction_l	hip_rotation_l	knee_angle_l	knee_angle_l_beta	ankle_angle_l	subtalar_angle_l	mtp_angle_l	lumbar_extension	lumbar_bending	lumbar_rotation	arm_flex_r	arm_add_r	arm_rot_r	elbow_flex_r	pro_sup_r	wrist_flex_r	wrist_dev_r	arm_flex_l	arm_add_l	arm_rot_l	elbow_flex_l	pro_sup_l	wrist_flex_l	wrist_dev_l
     39.55014286	     -3.95378173	     -4.43631790	     10.42449499	      0.92341688	      0.91632572	      0.52300065	      4.33665593	      5.06125238	    -16.92270720	     18.81798712	     18.81798712	     20.17298361	     -4.91954060	     -1.15059999	     29.90093763	     -7.12576083	      0.59573399	     16.86920157	     16.86920157	      1.57719867	     -4.97672798	      1.98500650	     -9.53370240	      3.56793747	      3.82170591	     54.76727924	    -18.50799935	     -6.91279753	     72.72608045	     44.81681657	      0.00000000	      0.00000000	    -19.30551462	     -8.93226290	     11.49363459	     32.32410615	     44.05290519	      0.00000000	      0.00000000
     39.57028571	     -3.91978809	     -4.67326271	     10.54784851	      0.92457372	      0.91540066	      0.52077186	      3.36115661	      5.42102495	    -16.93985723	     17.92574127	     17.92574127	     20.25507706	     -4.68659286	     -1.46463310	     29.64125953	     -7.18848486	      1.06032655	     17.07078265	     17.07078265	     -0.27641303	     -6.63487576	     -1.44447797	     -9.47125304	      3.53731651	      4.13280541	     55.14848387	    -18.78480407	     -6.98519889	     74.26626916	     44.82325117	      0.00000000	      0.00000000	    -18.73015167	     -9.15776447	     12.51418477	     32.36143013	     44.04715239	      0.00000000	      0.00000000
     39.59042857	     -4.01562512	     -4.78540805	     10.63071946	      0.92571258	      0.91448107	      0.51843628	      2.61613901	      5.57578535	    -16.90847017	     17.27541618	     17.27541618	     20.48186110	     -4.48354851	     -1.42476806	     29.76564234	     -7.18731382	      1.15327612	     17.96226528	     17.96226528	     -0.49244810	     -7.26184749	     -1.53631988	     -9.29404948	      3.28914527	      4.12844725	     55.79690935	    -18.66007081	     -6.98345160	     74.62892351	     44.81898196	      0.00000000	      0.00000000	    -18.19385250	     -9.25359104	     12.55795052	     32.43676889	     44.06168575	      0.00000000	      0.00000000
     39.61057143	     -4.11337420	     -4.90469068	     10.71964496	      0.92696349	      0.91374508	      0.51579995	      1.79377774	      5.73277370	    -16.93031787	     16.47854260	     16.47854260	     20.57935297	     -4.19924779	     -1.34409430	     29.94841776	     -7.13747050	      1.47816591	     18.99164952	     18.99164952	     -0.66328149	     -8.09169060	     -1.62483944	     -9.10374711	      3.11690574	      4.12691610	     56.24063855	    -18.56567006	     -6.99629244	     75.07085133	     44.81310726	      0.00000000	      0.00000000	    -17.50346652	     -9.34185908	     12.58953294	     32.45294712	     44.08378828	      0.00000000	      0.00000000
     39.63071429	     -4.24560238	     -4.98730378	     10.77250295	      0.92829633	      0.91317057	      0.51298699	      0.99447756	      5.81784717	    -16.93349018	     15.67936144	     15.67936144	     20.59100515	     -3.81403856	     -1.29947195	     30.13306634	     -7.00357896	      1.97007718	     20.01606215	     20.01606215	     -0.71968264	     -9.10392291	     -1.55367437	     -8.92250625	      2.88850300	      4.21282511	     56.50894898	    -18.60256784	     -7.06548445	     75.61378531	     44.80887512	      0.00000000	      0.00000000	    -16.62517804	     -9.45239403	     12.59995511	     32.33479591	     44.12069213	      0.00000000	      0.00000000
     39.65085714	     -4.37374632	     -4.99399602	     10.76351657	      0.92964657	      0.91275401	      0.50994287	      0.29463039	      5.75241483	    -16.95149790	     15.13092017	     15.13092017	     20.60804443	     -3.51037402	     -1.26872872	     30.32591466	     -6.80261510	      2.34340786	     21.14181181	     21.14181181	     -0.55929986	    -10.05060143	     -1.48619967	     -8.79784651	      2.60729183	      4.33115524	     56.77062567	    -18.62448646	     -7.11233833	     75.92821803	     44.80766756	      0.00000000	      0.00000000	    -15.73503701	     -9.56301153	     12.56015307	     32.34025805	     44.15507470	      0.00000000	      0.00000000
     39.67100000	     -4.53607753	     -5.00828040	     10.71188574	      0.93098604	      0.91258862	      0.50668494	     -0.40708343	      5.64972112	    -17.06674271	     14.49644085	     14.49644085	     20.45244100	     -2.89164157	     -1.32692600	     30.51021151	     -6.51439496	      3.04111386	     22.21821577	     22.21821577	     -0.16797211	    -11.31102721	     -0.70397575	     -8.66847014	      2.35876294	      4.63524488	     56.83943555	    -18.86572226	     -7.25687542	     76.37218686	     44.81334874	      0.00000000	      0.00000000	    -14.64740270	     -9.65266686	     12.46727723	     32.09077833	     44.22018682	      0.00000000	      0.00000000
     39.69114286	     -4.67777913	     -4.98623933	     10.57125047	      0.93233573	      0.91245962	      0.50327025	     -0.94702297	      5.44119597	    -17.03919311	     14.24390399	     14.24390399	     20.40212035	     -2.55084685	     -1.34773153	     30.67292143	     -6.27427810	      3.37217858	     23.32978776	     23.32978776	      0.29497677	    -12.17997463	     -0.53446439	     -8.58930250	      2.15871973	      4.81122485	     57.08225032	    -18.86778697	     -7.28004468	     76.45537662	     44.81799800	      0.00000000	      0.00000000	    -13.76868024	     -9.78078096	     12.37791868	     32.20782419	     44.25833926	      0.00000000	      0.00000000
     39.71128571	     -4.85095039	     -5.02559892	     10.40214390	      0.93359333	      0.91246347	      0.49966603	     -1.44020858	      5.24412908	    -17.14538543	     13.97679366	     13.97679366	     20.21126407	     -1.94549227	     -1.42810529	     30.84439902	     -6.01690644	      3.89760374	     24.38846056	     24.38846056	      0.89552925	    -13.30073359	      0.11530004	     -8.51209972	      2.04615204	      5.10549531	     57.27513164	    -18.99371852	     -7.34150286	     76.35600776	     44.83205224	      0.00000000	      0.00000000	    -12.81873884	     -9.88510738	     12.23496933	     32.36784962	     44.30973451	      0.00000000	      0.00000000
     39.73142857	     -5.03265970	     -5.02096620	     10.15253993	      0.93487534	      0.91255493	      0.49594247	     -1.83947233	      4.92789141	    -17.27168015	     13.90893710	     13.90893710	     20.03763226	     -1.25781396	     -1.62752328	     30.93716378	     -5.72991729	      4.35698545	     25.34039520	     25.34039520	      1.67133815	    -14.29385830	      1.01975691	     -8.42395300	      1.92731599	      5.42828377	     57.45864852	    -19.08763208	     -7.38674506	     76.06537872	     44.85272840	      0.00000000	      0.00000000	    -11.94216224	     -9.99314402	     12.05465232	     32.60622753	     44.36669692	      0.00000000	      0.00000000
     39.75157143	     -5.24822314	     -4.95267657	      9.80490533	      0.93622041	      0.91275430	      0.49215180	     -2.15435344	      4.53497491	    -17.07980247	     13.93441992	     13.93441992	     19.84726874	     -0.96571414	     -1.62708410	     30.87816638	     -5.49362493	      4.37470091	     25.99396168	     25.99396168	      2.23493141	    -14.86037584	      1.01458810	     -8.34563743	      1.77589664	      5.59780791	     57.46568478	    -18.82769784	     -7.28681614	     75.93864599	     44.85500730	      0.00000000	      0.00000000	    -11.17889957	    -10.16154831	     11.96978266	     32.86759577	     44.39273718	      0.00000000	      0.00000000
     39.77171429	     -5.44625235	     -4.90846115	      9.47950611	      0.93731953	      0.91286858	      0.48787433	     -2.37061590	      3.94409824	    -17.84598948	     14.21366593	     14.21366593	     19.53674156	      0.66619261	     -2.82943215	     31.12882128	     -5.07752976	      4.86222225	     27.34801972	     27.34801972	      4.54111920	    -15.52722839	      5.68576245	     -8.28167861	      1.74405653	      5.64816151	     58.03573470	    -18.58251631	     -7.32756323	     74.11145664	     44.95311433	      0.00000000	      0.00000000	    -10.75796629	    -10.26424659	     11.33316384	     33.72556087	     44.56192104	      0.00000000	      0.00000000
     39.79185714	     -5.61604598	     -5.00569273	      9.05559611	      0.93857737	      0.91296006	      0.48384570	     -2.60592644	      3.65777438	    -17.64610816	     14.40786968	     14.40786968	     19.30930429	      1.06226386	     -2.98903510	     31.13417694	     -5.00222370	      4.90297569	     28.16839953	     28.16839953	      5.29160263	    -16.12061677	      5.99961482	     -8.25496846	      1.85678902	      6.03107901	     57.99271394	    -18.66806897	     -7.38778944	     73.31123451	     44.99003503	      0.00000000	      0.00000000	    -10.09767902	    -10.43071727	     11.08984459	     34.27396454	     44.62228279	      0.00000000	      0.00000000
     39.81200000	     -5.75818003	     -5.02051225	      8.60047833	      0.93994360	      0.91320279	      0.47968655	     -2.88651876	      3.28001816	    -17.37641313	     14.58774107	     14.58774107	     19.08668585	      1.37006037	     -3.01369014	     30.93272780	     -4.89021082	      4.74664472	     28.71191451	     28.71191451	      5.85718105	    -16.63511088	      5.92009707	     -8.26278839	      1.94827411	      6.17205394	     57.65603156	    -18.37196331	     -7.29202816	     72.96731947	     44.99792026	      0.00000000	      0.00000000	     -9.46017939	    -10.60646263	     11.00236419	     34.57316609	     44.64581680	      0.00000000	      0.00000000
     39.83214286	     -5.94260929	     -5.00067097	      8.14024955	      0.94113103	      0.91326156	      0.47519903	     -2.98051567	      2.65826975	    -17.83826649	     15.08636046	     15.08636046	     18.78004946	      2.67479307	     -4.12636352	     30.95491105	     -4.65470628	      4.71471732	     29.67189174	     29.67189174	      7.66803083	    -16.87025247	      8.85875505	     -8.17835867	      2.00162085	      5.87034140	     58.23599905	    -17.50948222	     -7.55964379	     69.50489162	     45.15140028	      0.00000000	      0.00000000	     -9.60181833	    -10.91208471	     10.49537812	     36.24333602	     44.78194350	      0.00000000	      0.00000000
     39.85228571	     -6.04558286	     -5.06338127	      7.64361383	      0.94251578	      0.91352633	      0.47084372	     -3.21479349	      2.29094539	    -17.50062252	     15.39073326	     15.39073326	     18.55270867	      2.92900489	     -4.16856877	     30.66099201	     -4.61920108	      4.45946016	     30.12719127	     30.12719127	      8.21493985	    -17.26518252	      8.71838655	     -8.23172290	      2.19608650	      5.97785625	     57.51169665	    -17.30370924	     -7.49527600	     69.01052633	     45.16354333	      0.00000000	      0.00000000	     -8.96321177	    -11.09330756	     10.39390285	     36.53790312	     44.80676626	      0.00000000	      0.00000000
     39.87242857	     -6.24701770	     -5.05052148	      7.10045806	      0.94367436	      0.91357298	      0.46635392	     -3.06497226	      1.65830771	    -17.46359893	     16.24778513	     16.24778513	     18.37001466	      3.53405477	     -4.68667964	     30.48259256	     -4.52624622	      4.02944886	     30.62909900	     30.62909900	      9.03749325	    -17.39523792	      9.03522503	     -8.14249015	      2.25451164	      6.52784993	     56.85121705	    -17.69912987	     -7.89679268	     66.89277687	     45.25214750	      0.00000000	      0.00000000	     -8.26254126	    -11.31419043	     10.17676749	     37.32037712	     44.86026769	      0.00000000	      0.00000000
